<svg width="70" height="23" viewBox="0 0 70 23" fill="none" xmlns="http://www.w3.org/2000/svg">
<path d="M0.5 11.2022L6.74691 6.10494" stroke="#FFAEAC" stroke-linecap="round"/>
<path d="M0.5 11.2022L6.74691 16.2995" stroke="#FFAEAC" stroke-linecap="round"/>
<path d="M68.7902 11.2022L62.5432 6.10494" stroke="#FFAEAC" stroke-linecap="round"/>
<path d="M68.7902 11.2022L62.5432 16.2995" stroke="#FFAEAC" stroke-linecap="round"/>
<path d="M18.7013 23L10.2395 1.02222V20.984L12.9655 22.1198V22.716H6.88892V22.1198L9.55805 20.984V1.02222L6.94571 0.62469V0H13.221L20.3482 18.2296L27.6173 0H33.3531V0.62469L30.7408 1.02222V21.6938L33.3531 22.1198V22.716H25.005V22.1198L27.6173 21.6938V1.87407L19.2124 23H18.7013Z" fill="#CF4975"/>
<path d="M35.4464 22.716L44.2772 2.83951H45.7254L36.9229 22.716H35.4464Z" fill="#CF4975"/>
<path d="M52.7512 22.716V22.1198L55.3635 21.6938V0.709876H50.6783L48.5203 6.3321H47.6968V0H66.182V6.3321H65.3302L63.2005 0.709876H58.487V21.6938L61.0993 22.1198V22.716H52.7512Z" fill="#CF4975"/>
<path d="M37.4486 9.16049C37.8391 9.16049 38.1917 9.49576 38.1918 9.95737C38.1918 10.4842 37.9341 10.9713 37.3715 11.5052C37.1067 11.7566 36.7856 12.0048 36.5238 12.1937C36.4603 12.2396 36.3994 12.2797 36.3461 12.3167C36.2908 12.2787 36.2282 12.2369 36.1625 12.1898C35.8974 11.9998 35.5796 11.7532 35.3314 11.5101C34.8187 11.0077 34.5062 10.4737 34.5062 9.95737C34.5063 9.49747 34.8585 9.16068 35.2484 9.16049C35.5212 9.16049 35.7709 9.32153 35.9017 9.58139L36.349 10.4701L36.7953 9.58139C36.926 9.32148 37.1758 9.16061 37.4486 9.16049Z" fill="#FFAEAC" stroke="#FFAEAC"/>
<path d="M45.1152 13.4198C45.5058 13.4198 45.8584 13.755 45.8584 14.2166C45.8584 14.7434 45.6007 15.2306 45.0381 15.7645C44.7733 16.0158 44.4522 16.264 44.1904 16.453C44.1269 16.4988 44.0661 16.5389 44.0127 16.576C43.9574 16.538 43.8948 16.4962 43.8291 16.4491C43.5641 16.2591 43.2462 16.0124 42.998 15.7694C42.4853 15.267 42.1729 14.733 42.1729 14.2166C42.1729 13.7567 42.5252 13.4199 42.915 13.4198C43.1879 13.4198 43.4375 13.5808 43.5684 13.8407L44.0156 14.7293L44.4619 13.8407C44.5926 13.5807 44.8424 13.4199 45.1152 13.4198Z" fill="#FFAEAC" stroke="#FFAEAC"/>
</svg>
